<svg id="Layer_1" data-name="Layer 1" xmlns="http://www.w3.org/2000/svg" xmlns:xlink="http://www.w3.org/1999/xlink" viewBox="0 0 547.77 106.02"><defs><style>.cls-1,.cls-2{fill:#9e9e9e;}.cls-2{font-size:90.39px;font-family:Helvetica Neue;}.cls-3{letter-spacing:-1px;}.cls-4{fill:url(#linear-gradient);}.cls-5{fill:url(#linear-gradient-2);}.cls-6{fill:url(#linear-gradient-3);}.cls-7{fill:url(#linear-gradient-4);}</style><linearGradient id="linear-gradient" y1="56.58" x2="18.11" y2="56.58" gradientUnits="userSpaceOnUse"><stop offset="0" stop-color="#ff0"/><stop offset="0.22" stop-color="#f7ff08"/><stop offset="0.88" stop-color="aqua"/></linearGradient><linearGradient id="linear-gradient-2" x1="26.01" y1="56.58" x2="44.12" y2="56.58" xlink:href="#linear-gradient"/><linearGradient id="linear-gradient-3" x1="52.03" y1="56.58" x2="70.14" y2="56.58" xlink:href="#linear-gradient"/><linearGradient id="linear-gradient-4" x1="0" y1="14.45" x2="70.14" y2="14.45" xlink:href="#linear-gradient"/></defs><title>REX Protocol Full Logo</title><path class="cls-1" d="M537.44,279.07L561.57,247h-2.32l-23.11,30.72L513.22,247H466v12.62a10.94,10.94,0,0,0-4.1-8.65c-3.22-2.76-7.76-4-14.69-4H418v66h4V282h24.93a29.82,29.82,0,0,1,9.19,1.09,11.57,11.57,0,0,1,5.29,3.3,11.34,11.34,0,0,1,2.45,5.37,39.21,39.21,0,0,1,.61,7.27c0,1.05,0,2.24,0,3.57s0.09,2.64.18,3.94,0.23,2.55.42,3.69,0.43,2.76.74,2.76h46l24.32-32.58L560.37,313h2.32ZM446.74,281H422V249h25.67c6.31,0,10.86,1.08,13.64,3.71s4.21,6.18,4.27,10.88A16,16,0,0,1,464,271a15.05,15.05,0,0,1-4.17,5.12,18,18,0,0,1-6,3.47A27.39,27.39,0,0,1,446.74,281Zm19.43,25.91c-0.12-1.36,0-2.74,0-4.13s0-2.56,0-3.48a49.56,49.56,0,0,0-.4-7.15,14.62,14.62,0,0,0-1.82-5.48c-0.92-1.55-2.86-2.8-4.6-3.76a21.69,21.69,0,0,0-7.38-2v-0.18c5-1.05,8.29-3,10.76-6,1.58-1.87,3.24-4.06,3.24-6.54V310A28.29,28.29,0,0,0,466.17,306.91ZM510.88,312H467V281h42v-4H467V249h45.13l22.7,30.53Z" transform="translate(-322.86 -234.48)"/><text class="cls-2" transform="translate(242.27 77.46)"><tspan class="cls-3">P</tspan><tspan class="cls-3" x="51.61" y="0">r</tspan><tspan x="75.65" y="0">o</tspan><tspan class="cls-3" x="124.19" y="0">t</tspan><tspan x="146.33" y="0">ocol</tspan></text><polygon class="cls-4" points="18.11 38.81 18.11 83.11 0 74.36 0 30.06 18.11 38.81"/><polygon class="cls-5" points="44.12 74.36 44.12 30.06 26.02 38.81 26.02 83.11 44.12 74.36"/><polygon class="cls-6" points="70.14 38.81 70.14 83.11 52.03 74.36 52.03 30.06 70.14 38.81"/><polygon class="cls-7" points="70.14 28.52 0 28.52 35.07 0.39 48.21 10.84 52.03 13.87 53.35 14.91 58.06 18.77 70.14 28.52"/></svg>